<svg viewBox="0 0 1024 1024" xmlns="http://www.w3.org/2000/svg"><defs><linearGradient id="ring" x1="0" y1="0" x2="1" y2="1"><stop offset="0" stop-color="#27B996"/><stop offset="1" stop-color="#1E9E86"/></linearGradient><linearGradient id="bg" x1="0" y1="0" x2="0.4" y2="1"><stop offset="0" stop-color="#5B21B6"/><stop offset="1" stop-color="#241065"/></linearGradient><filter id="sh" x="-20%" y="-20%" width="140%" height="140%"><feDropShadow dx="0" dy="7" stdDeviation="16" flood-color="#000000" flood-opacity="0.30"/></filter></defs><rect width="1024" height="1024" rx="228" fill="url(#bg)"/><g filter="url(#sh)"><g transform="translate(-191.7,-174.5) scale(1.3758)"><path d="M 206.0 623.6 A 330 330 0 0 1 624.9 189.9 L 630.3 174.9 L 684.1 254.3 L 598.9 261.3 L 604.3 246.3 A 270 270 0 0 0 261.7 601.1 Z" fill="url(#ring)"/><path d="M 811.1 360.5 A 330 330 0 0 1 399.1 810.1 L 393.7 825.1 L 339.9 745.7 L 425.1 738.7 L 419.7 753.7 A 270 270 0 0 0 756.7 385.9 Z" fill="url(#ring)"/><rect x="362.0" y="376.0" width="300" height="248" rx="30" fill="#1F6FE0"/><circle cx="512" cy="452" r="48" fill="none" stroke="#FFFFFF" stroke-width="8"/><ellipse cx="512" cy="452" rx="21.1" ry="48" fill="none" stroke="#FFFFFF" stroke-width="6.5"/><line x1="464" y1="452" x2="560" y2="452" stroke="#FFFFFF" stroke-width="6.5"/><g transform="translate(411.3,596.5) scale(0.8370,-0.8370)"><path d="M 27.98 58.69 L 27.98 14.20 L 34.72 14.20 Q 46.23 14.20 52.31 19.92 Q 58.41 25.64 58.41 36.53 Q 58.41 47.36 52.34 53.02 Q 46.30 58.69 34.72 58.69 L 27.98 58.69 Z M 9.19 72.91 L 29.00 72.91 Q 45.61 72.91 53.73 70.53 Q 61.86 68.17 67.67 62.50 Q 72.80 57.56 75.28 51.11 Q 77.78 44.67 77.78 36.53 Q 77.78 28.27 75.28 21.80 Q 72.80 15.33 67.67 10.41 Q 61.81 4.73 53.61 2.36 Q 45.41 0.00 29.00 0.00 L 9.19 0.00 L 9.19 72.91 Z M 92.20 72.91 L 113.18 72.91 L 139.70 22.91 L 139.70 72.91 L 157.52 72.91 L 157.52 0.00 L 136.52 0.00 L 110.01 50.00 L 110.01 0.00 L 92.20 0.00 L 92.20 72.91 Z M 226.61 70.61 L 226.61 55.17 Q 220.61 57.86 214.89 59.22 Q 209.18 60.59 204.11 60.59 Q 197.37 60.59 194.14 58.73 Q 190.92 56.89 190.92 52.98 Q 190.92 50.05 193.09 48.41 Q 195.26 46.78 200.98 45.61 L 208.98 44.00 Q 221.14 41.55 226.26 36.56 Q 231.40 31.59 231.40 22.41 Q 231.40 10.36 224.25 4.47 Q 217.09 -1.42 202.39 -1.42 Q 195.46 -1.42 188.48 -0.09 Q 181.50 1.22 174.51 3.81 L 174.51 19.67 Q 181.50 15.97 188.01 14.08 Q 194.53 12.20 200.59 12.20 Q 206.75 12.20 210.01 14.25 Q 213.28 16.31 213.28 20.12 Q 213.28 23.53 211.06 25.39 Q 208.84 27.25 202.20 28.72 L 194.92 30.33 Q 183.98 32.67 178.92 37.80 Q 173.87 42.92 173.87 51.61 Q 173.87 62.50 180.90 68.36 Q 187.93 74.22 201.12 74.22 Q 207.14 74.22 213.48 73.31 Q 219.82 72.41 226.61 70.61 Z" fill="#FFFFFF"/></g></g></g></svg>